<svg xmlns="http://www.w3.org/2000/svg" width="174.525" height="123.951" viewBox="0 0 174.525 123.951">
  <g id="Group_23" data-name="Group 23" transform="translate(0 0)">
    <g id="Group_19" data-name="Group 19" transform="translate(0.863)">
      <path id="Path_46" data-name="Path 46" d="M482.857,362.734q-8.565,0-12.551-4.142a8.113,8.113,0,0,1-3.114,2.959,16.189,16.189,0,0,1-6.042,1.152q-.561,0-1.121-.031a15.824,15.824,0,0,1-7.038-2.118q-7.786-4.516-7.786-14.7,0-7.629,4.3-12.208,4.733-4.983,12.862-5.014h.094a20.035,20.035,0,0,1,8.221,1.62q5.824,2.522,5.824,7.567v11.274a5.587,5.587,0,0,0,1.308,4.049q1.09,1.121,5.045,1.121Zm-30.614-40.486a4.057,4.057,0,0,1,.342-1.65,4.457,4.457,0,0,1,.934-1.37,4.291,4.291,0,0,1,1.355-.919,4.035,4.035,0,0,1,1.6-.327,4.151,4.151,0,0,1,1.62.327,4.253,4.253,0,0,1,2.616,3.94,4.181,4.181,0,0,1-.327,1.666,3.935,3.935,0,0,1-.919,1.324,4.522,4.522,0,0,1-1.37.887,4.14,4.14,0,0,1-1.62.327,4.024,4.024,0,0,1-1.6-.327,4.575,4.575,0,0,1-1.355-.887,4.136,4.136,0,0,1-.934-1.324A4.021,4.021,0,0,1,452.243,322.248Zm14.45,16.506q-.218-.872-.5-1a9.382,9.382,0,0,0-3.737-.685h-.094A6.818,6.818,0,0,0,457.133,339q-2.118,2.242-2.118,6.852,0,5.7,3.488,7.692a4.96,4.96,0,0,0,2.3.686,2.642,2.642,0,0,0,.374.031,5.077,5.077,0,0,0,1.9-.374,5.728,5.728,0,0,0,3.612-4.952Zm-4.484-16.506a4.043,4.043,0,0,1,.342-1.65,4.444,4.444,0,0,1,.934-1.37,4.287,4.287,0,0,1,1.355-.919,4.038,4.038,0,0,1,1.6-.327,4.148,4.148,0,0,1,1.619.327,4.25,4.25,0,0,1,2.616,3.94,4.19,4.19,0,0,1-.327,1.666,3.946,3.946,0,0,1-.919,1.324,4.526,4.526,0,0,1-1.371.887,4.137,4.137,0,0,1-1.619.327,4.027,4.027,0,0,1-1.6-.327,4.57,4.57,0,0,1-1.355-.887,4.124,4.124,0,0,1-.934-1.324A4.008,4.008,0,0,1,462.209,322.248Z" transform="translate(-443.496 -317.981)" fill="#3ec2cf"/>
      <path id="Path_47" data-name="Path 47" d="M513.239,354.852l3.394,3.395a16.284,16.284,0,0,1-4.453-11.8q0-7.661,4.3-12.208,4.765-5.046,12.862-5.045,8.159,0,12.893,5.014,4.3,4.548,4.3,12.239a16.236,16.236,0,0,1-4.485,11.866l3.457-3.457h3.519v8.471h-39.3v-8.471Zm6.259-31.268a4.039,4.039,0,0,1,.343-1.65,4.469,4.469,0,0,1,.934-1.371,4.3,4.3,0,0,1,1.355-.919,4.035,4.035,0,0,1,1.6-.327,4.144,4.144,0,0,1,1.619.327,4.257,4.257,0,0,1,2.289,2.289,4.361,4.361,0,0,1,0,3.317,3.943,3.943,0,0,1-.918,1.324,4.524,4.524,0,0,1-1.371.887,4.133,4.133,0,0,1-1.619.327,4.025,4.025,0,0,1-1.6-.327,4.568,4.568,0,0,1-1.355-.887,4.139,4.139,0,0,1-.934-1.324A4.005,4.005,0,0,1,519.5,323.584Zm15.1,15.977a6.861,6.861,0,0,0-5.263-1.9,6.774,6.774,0,0,0-5.2,1.9q-2.149,2.274-2.149,6.882a8.737,8.737,0,0,0,2.18,6.353,6.84,6.84,0,0,0,5.138,2.055,6.946,6.946,0,0,0,5.232-1.993,8.83,8.83,0,0,0,2.18-6.416Q536.721,341.772,534.6,339.56Zm-5.138-15.977a4.05,4.05,0,0,1,.342-1.65,4.46,4.46,0,0,1,.935-1.371,4.289,4.289,0,0,1,1.355-.919,4.029,4.029,0,0,1,1.6-.327,4.147,4.147,0,0,1,1.62.327,4.258,4.258,0,0,1,2.289,2.289,4.362,4.362,0,0,1,0,3.317,3.931,3.931,0,0,1-.918,1.324,4.53,4.53,0,0,1-1.37.887,4.136,4.136,0,0,1-1.62.327,4.018,4.018,0,0,1-1.6-.327,4.561,4.561,0,0,1-1.355-.887,4.131,4.131,0,0,1-.935-1.324A4.016,4.016,0,0,1,529.465,323.584Z" transform="translate(-471.915 -318.57)" fill="#3ec2cf"/>
      <path id="Path_48" data-name="Path 48" d="M580.7,354.606,584.1,358a16.281,16.281,0,0,1-4.454-11.8q0-7.661,4.3-12.208,4.764-5.046,12.862-5.045,8.159,0,12.893,5.014,4.3,4.548,4.3,12.239a16.236,16.236,0,0,1-4.484,11.866l3.457-3.457h3.519v8.471h-39.3v-8.471Zm21.364-15.291a6.86,6.86,0,0,0-5.263-1.9,6.774,6.774,0,0,0-5.2,1.9q-2.149,2.274-2.149,6.882a8.738,8.738,0,0,0,2.18,6.353,6.841,6.841,0,0,0,5.139,2.056,6.946,6.946,0,0,0,5.232-1.993,8.83,8.83,0,0,0,2.18-6.415Q604.186,341.526,602.068,339.315Zm-9.436-16.288a4.046,4.046,0,0,1,.343-1.65,4.458,4.458,0,0,1,.934-1.37,4.278,4.278,0,0,1,1.355-.919,4.024,4.024,0,0,1,1.6-.327,4.141,4.141,0,0,1,1.62.327,4.253,4.253,0,0,1,2.616,3.939,4.173,4.173,0,0,1-.327,1.666,3.939,3.939,0,0,1-.919,1.324,4.512,4.512,0,0,1-1.37.887,4.141,4.141,0,0,1-1.62.327,4.023,4.023,0,0,1-1.6-.327,4.555,4.555,0,0,1-1.355-.887,4.128,4.128,0,0,1-.934-1.324A4.009,4.009,0,0,1,592.632,323.027Z" transform="translate(-501.635 -318.324)" fill="#3ec2cf"/>
      <path id="Path_49" data-name="Path 49" d="M649.476,362.624v-9.779q-.124-7.131-2.522-10.713l8.222-4.952,1.713,4.827q2.118-4.982,9.841-5.045h17.285q8.128,0,12.862,5.045,4.3,4.547,4.3,12.208a16.287,16.287,0,0,1-4.453,11.8,16.712,16.712,0,0,1-12.644,5.076H644.649v-8.471Zm34.6,0a6.806,6.806,0,0,0,5.108-2.055,8.741,8.741,0,0,0,2.18-6.354q0-4.608-2.118-6.882a6.879,6.879,0,0,0-5.232-1.9H666.73a6.876,6.876,0,0,0-5.232,1.9q-2.119,2.274-2.118,6.882v8.409Z" transform="translate(-531.354 -326.342)" fill="#3ec2cf"/>
      <path id="Path_50" data-name="Path 50" d="M466.593,465.935q-5.56,0-8.148-2.69a5.263,5.263,0,0,1-2.021,1.921,10.523,10.523,0,0,1-3.923.748c-.242,0-.485-.007-.727-.02a10.27,10.27,0,0,1-4.569-1.375q-5.055-2.93-5.055-9.542A10.408,10.408,0,0,1,453.29,443.8h.06a13.006,13.006,0,0,1,5.337,1.051q3.781,1.637,3.781,4.913v7.319a3.627,3.627,0,0,0,.849,2.629q.708.727,3.275.728Zm-19.874-26.283a2.624,2.624,0,0,1,.223-1.072,2.887,2.887,0,0,1,.607-.89,2.78,2.78,0,0,1,.879-.6,2.616,2.616,0,0,1,1.041-.213,2.691,2.691,0,0,1,1.051.213,2.758,2.758,0,0,1,1.7,2.557,2.719,2.719,0,0,1-.212,1.082,2.57,2.57,0,0,1-.6.859,2.941,2.941,0,0,1-.889.576,2.688,2.688,0,0,1-1.051.212,2.613,2.613,0,0,1-1.041-.212,2.961,2.961,0,0,1-.879-.576,2.681,2.681,0,0,1-.607-.859A2.6,2.6,0,0,1,446.719,439.652Zm9.381,10.715q-.141-.566-.323-.647a6.086,6.086,0,0,0-2.426-.445h-.06a4.426,4.426,0,0,0-3.4,1.253,6.278,6.278,0,0,0-1.375,4.448q0,3.7,2.265,4.993a3.221,3.221,0,0,0,1.5.446,1.742,1.742,0,0,0,.242.02,3.3,3.3,0,0,0,1.234-.243,3.717,3.717,0,0,0,2.345-3.214Zm-2.911-10.715a2.634,2.634,0,0,1,.222-1.072,2.9,2.9,0,0,1,.607-.89,2.78,2.78,0,0,1,.88-.6,2.609,2.609,0,0,1,1.041-.213,2.69,2.69,0,0,1,1.052.213,2.758,2.758,0,0,1,1.7,2.557,2.725,2.725,0,0,1-.212,1.082,2.568,2.568,0,0,1-.6.859,2.948,2.948,0,0,1-.89.576,2.687,2.687,0,0,1-1.052.212,2.607,2.607,0,0,1-1.041-.212,2.961,2.961,0,0,1-.88-.576,2.691,2.691,0,0,1-.607-.859A2.611,2.611,0,0,1,453.189,439.652Z" transform="translate(-442.15 -370.359)" fill="#86c455"/>
      <path id="Path_51" data-name="Path 51" d="M500.005,455.709v10.776a7.226,7.226,0,0,1-2.245,5.317,8.018,8.018,0,0,1-5.924,2.426h-7.8v-5.5h7.8a1.566,1.566,0,0,0,1.113-.526,2.29,2.29,0,0,0,.687-1.718V455.709Zm-13.768,23.433a2.63,2.63,0,0,1,.222-1.072,2.88,2.88,0,0,1,.606-.889,2.776,2.776,0,0,1,.88-.6,2.616,2.616,0,0,1,1.041-.213,2.688,2.688,0,0,1,1.051.213,2.759,2.759,0,0,1,1.7,2.557,2.714,2.714,0,0,1-.212,1.081,2.572,2.572,0,0,1-.6.86,2.94,2.94,0,0,1-.89.576,2.686,2.686,0,0,1-1.051.212,2.614,2.614,0,0,1-1.041-.212,2.979,2.979,0,0,1-.88-.576,2.69,2.69,0,0,1-.606-.86A2.6,2.6,0,0,1,486.237,479.142Zm6.469,0a2.627,2.627,0,0,1,.223-1.072,2.883,2.883,0,0,1,.606-.889,2.761,2.761,0,0,1,.88-.6,2.613,2.613,0,0,1,1.041-.213,2.687,2.687,0,0,1,1.051.213,2.795,2.795,0,0,1,1.486,3.638,2.579,2.579,0,0,1-.6.86,2.931,2.931,0,0,1-.89.576,2.685,2.685,0,0,1-1.051.212,2.612,2.612,0,0,1-1.041-.212,2.963,2.963,0,0,1-.88-.576,2.693,2.693,0,0,1-.606-.86A2.6,2.6,0,0,1,492.706,479.142Z" transform="translate(-460.6 -378.652)" fill="#86c455"/>
      <path id="Path_52" data-name="Path 52" d="M520.222,476.756a11.022,11.022,0,0,0,1.253-1.779A10.34,10.34,0,0,0,522.627,470V455.709H529V469.9a15.574,15.574,0,0,1-1.739,7.38,16.871,16.871,0,0,1-1.86,2.709,38.327,38.327,0,0,1-3.276,3.3l-5.276-3.174A40.727,40.727,0,0,0,520.222,476.756Z" transform="translate(-475.054 -378.652)" fill="#86c455"/>
      <path id="Path_53" data-name="Path 53" d="M552.882,441.978v18.459a2.288,2.288,0,0,0,.687,1.718,1.564,1.564,0,0,0,1.112.526H556.1v5.5h-1.416a8.02,8.02,0,0,1-5.924-2.427,7.228,7.228,0,0,1-2.244-5.318V441.978Z" transform="translate(-488.124 -372.603)" fill="#86c455"/>
      <path id="Path_54" data-name="Path 54" d="M577.119,471.364q-5.074,0-7.238-2.306-2.446,2.305-8.047,2.306v-5.5q2.628,0,3.316-.708a3.659,3.659,0,0,0,.849-2.649v-2.1a11.064,11.064,0,0,1,2.79-7.925,12.336,12.336,0,0,1,16.72-.02,11.091,11.091,0,0,1,2.791,7.946,10.541,10.541,0,0,1-2.912,7.7q0-.02,2.244-2.244h2.244v5.5Zm3.438-15.427a4.456,4.456,0,0,0-3.417-1.233,4.4,4.4,0,0,0-3.377,1.233,6.3,6.3,0,0,0-1.395,4.468,5.674,5.674,0,0,0,1.415,4.124,4.443,4.443,0,0,0,3.336,1.334,4.513,4.513,0,0,0,3.4-1.294,5.733,5.733,0,0,0,1.415-4.165A6.266,6.266,0,0,0,580.557,455.937Z" transform="translate(-494.873 -375.787)" fill="#86c455"/>
      <path id="Path_55" data-name="Path 55" d="M610.149,463.532v-5.5h2.689a2.527,2.527,0,0,0,1.9-.708,3.658,3.658,0,0,0,.849-2.649v-9.664h6.389V455.06a3.427,3.427,0,0,0,.829,2.244,2.452,2.452,0,0,0,1.84.728h2.769v5.5h-2.769q-4.146,0-5.863-1.82-1.739,1.819-5.945,1.82Zm2.588-23.291a2.631,2.631,0,0,1,.223-1.071,2.9,2.9,0,0,1,.607-.89,2.785,2.785,0,0,1,.879-.6,2.615,2.615,0,0,1,1.041-.212,2.685,2.685,0,0,1,1.051.212,2.759,2.759,0,0,1,1.7,2.558,2.716,2.716,0,0,1-.212,1.082,2.55,2.55,0,0,1-.6.859,2.927,2.927,0,0,1-.89.576,2.679,2.679,0,0,1-1.051.213,2.61,2.61,0,0,1-1.041-.213,2.953,2.953,0,0,1-.879-.576,2.683,2.683,0,0,1-.607-.859A2.61,2.61,0,0,1,612.737,440.241Zm3.174-6.045a2.62,2.62,0,0,1,.223-1.071,2.883,2.883,0,0,1,.606-.89,2.779,2.779,0,0,1,.88-.6,2.614,2.614,0,0,1,1.041-.212,2.685,2.685,0,0,1,1.051.212,2.759,2.759,0,0,1,1.7,2.557,2.717,2.717,0,0,1-.212,1.082,2.559,2.559,0,0,1-.6.859,2.931,2.931,0,0,1-.89.576,2.683,2.683,0,0,1-1.051.213,2.612,2.612,0,0,1-1.041-.213,2.96,2.96,0,0,1-.88-.576,2.676,2.676,0,0,1-.606-.859A2.6,2.6,0,0,1,615.911,434.2Zm3.3,6.045a2.634,2.634,0,0,1,.222-1.071,2.9,2.9,0,0,1,.607-.89,2.785,2.785,0,0,1,.88-.6,2.612,2.612,0,0,1,1.041-.212,2.692,2.692,0,0,1,1.051.212,2.762,2.762,0,0,1,1.7,2.558,2.718,2.718,0,0,1-.213,1.082,2.557,2.557,0,0,1-.6.859,2.932,2.932,0,0,1-.89.576,2.687,2.687,0,0,1-1.051.213,2.607,2.607,0,0,1-1.041-.213,2.953,2.953,0,0,1-.88-.576,2.678,2.678,0,0,1-.607-.859A2.613,2.613,0,0,1,619.207,440.241Z" transform="translate(-516.156 -367.955)" fill="#86c455"/>
      <path id="Path_56" data-name="Path 56" d="M639.2,468.4v-5.5h2.689a2.524,2.524,0,0,0,1.9-.708,3.655,3.655,0,0,0,.849-2.648v-9.664h6.389v10.048a3.423,3.423,0,0,0,.829,2.244,2.454,2.454,0,0,0,1.84.728h2.77v5.5H653.7q-4.145,0-5.862-1.82-1.74,1.819-5.945,1.82Zm2.406-23.15a2.64,2.64,0,0,1,.222-1.071,2.909,2.909,0,0,1,.607-.89,2.784,2.784,0,0,1,.879-.6,2.615,2.615,0,0,1,1.041-.212,2.69,2.69,0,0,1,1.051.212,2.766,2.766,0,0,1,1.486,1.487,2.838,2.838,0,0,1,0,2.153,2.553,2.553,0,0,1-.6.859,2.945,2.945,0,0,1-.89.576,2.688,2.688,0,0,1-1.051.213,2.613,2.613,0,0,1-1.041-.213,2.956,2.956,0,0,1-.879-.576,2.688,2.688,0,0,1-.607-.859A2.619,2.619,0,0,1,641.61,445.253Zm6.47,0a2.624,2.624,0,0,1,.223-1.071,2.888,2.888,0,0,1,.607-.89,2.787,2.787,0,0,1,.879-.6,2.618,2.618,0,0,1,1.041-.212,2.685,2.685,0,0,1,1.051.212,2.759,2.759,0,0,1,1.7,2.558,2.717,2.717,0,0,1-.212,1.082,2.561,2.561,0,0,1-.6.859,2.925,2.925,0,0,1-.89.576,2.683,2.683,0,0,1-1.051.213,2.616,2.616,0,0,1-1.041-.213,2.959,2.959,0,0,1-.879-.576,2.67,2.67,0,0,1-.607-.859A2.6,2.6,0,0,1,648.08,445.253Z" transform="translate(-528.955 -372.826)" fill="#86c455"/>
      <path id="Path_57" data-name="Path 57" d="M690.639,465.373a3.629,3.629,0,0,0,.849,2.629,2.454,2.454,0,0,0,1.84.728,2.524,2.524,0,0,0,1.9-.708,3.656,3.656,0,0,0,.849-2.649v-9.664h6.389v9.664a8.536,8.536,0,0,1-2.345,6.187,9.036,9.036,0,0,1-6.793,2.669q-4.145,0-5.822-1.78-1.8,1.779-6,1.78-4.145,0-5.822-1.78-1.8,1.779-7.42,1.78v-5.5q2.628,0,3.336-.708a3.659,3.659,0,0,0,.849-2.649v-9.664h6.368v9.664a3.624,3.624,0,0,0,.85,2.629,2.451,2.451,0,0,0,1.84.728,2.524,2.524,0,0,0,1.9-.708,3.649,3.649,0,0,0,.87-2.649v-9.664h6.368Z" transform="translate(-541.754 -378.652)" fill="#86c455"/>
      <path id="Path_58" data-name="Path 58" d="M743.72,441.978v24.868h-6.369V441.978Zm-5.54,29.639-.1-.142a2.385,2.385,0,0,1-.283-1.111v-.121a2.071,2.071,0,0,1,.546-1.273,2.819,2.819,0,0,1,2.2-.849,3.52,3.52,0,0,1,1.152.182,2.669,2.669,0,0,1,1.456,2.264l-1.921.323a.827.827,0,0,0-.737-.707q-.618-.1-.617.627t1.617.809h1.719v2.143h-5.722v-2.143Z" transform="translate(-572.19 -372.603)" fill="#86c455"/>
    </g>
    <g id="Group_22" data-name="Group 22" transform="translate(0 113.878)">
      <g id="Group_20" data-name="Group 20" transform="translate(0 3.917)">
        <path id="Path_59" data-name="Path 59" d="M615.132,530.761H593.739v-2.238h21.393Zm-153.132,0H440.607v-2.238H462Z" transform="translate(-440.607 -528.523)" fill="#777778"/>
      </g>
      <g id="Group_21" data-name="Group 21" transform="translate(26.319)">
        <path id="Path_60" data-name="Path 60" d="M491.2,531.431v-9.746h1.325l5.114,7.649v-7.649h1.239v9.746H497.55l-5.114-7.65v7.65Zm12.62,0-3.766-9.746h1.4l2.532,7.083c.2.567.374,1.1.51,1.594q.224-.8.524-1.594l2.627-7.083h1.316l-3.8,9.746Zm6.329,0v-9.746h7.037v1.143h-5.744v2.995h5.376v1.143h-5.376v3.321h5.975v1.144Zm8.63-3.131,1.211-.109a2.7,2.7,0,0,0,.4,1.207,2.219,2.219,0,0,0,.98.762,3.707,3.707,0,0,0,1.495.29,3.546,3.546,0,0,0,1.3-.22,1.806,1.806,0,0,0,.84-.606,1.408,1.408,0,0,0,.276-.835,1.268,1.268,0,0,0-.265-.8,1.985,1.985,0,0,0-.878-.574,17.946,17.946,0,0,0-1.736-.474,8.865,8.865,0,0,1-1.88-.608,2.629,2.629,0,0,1-1.037-.91,2.218,2.218,0,0,1-.343-1.214,2.474,2.474,0,0,1,.42-1.381,2.579,2.579,0,0,1,1.222-.976,4.629,4.629,0,0,1,1.787-.333,4.869,4.869,0,0,1,1.91.349,2.744,2.744,0,0,1,1.273,1.028,2.948,2.948,0,0,1,.479,1.536l-1.239.1a1.981,1.981,0,0,0-.674-1.393,2.622,2.622,0,0,0-1.7-.472,2.727,2.727,0,0,0-1.706.428,1.29,1.29,0,0,0-.535,1.035,1.115,1.115,0,0,0,.379.865,5.161,5.161,0,0,0,1.944.694,13.07,13.07,0,0,1,2.157.621,2.954,2.954,0,0,1,1.255.992,2.409,2.409,0,0,1,.4,1.382,2.636,2.636,0,0,1-.444,1.463,2.935,2.935,0,0,1-1.277,1.069,4.466,4.466,0,0,1-1.876.381,5.591,5.591,0,0,1-2.212-.386,3.084,3.084,0,0,1-1.4-1.159A3.269,3.269,0,0,1,518.777,528.3Zm11.977,3.131v-8.6h-3.212v-1.143h7.717v1.143h-3.212v8.6Zm5.81,0v-9.746H538.5l2.3,6.9c.213.642.367,1.123.465,1.443q.167-.532.521-1.563l2.346-6.778h1.727v9.746h-1.239v-8.154l-2.845,8.154h-1.162l-2.813-8.3v8.3Zm11.393,0v-9.746h7.037v1.143H549.25v2.995h5.377v1.143H549.25v3.321h5.975v1.144Zm9.038,0v-9.746h1.325l5.113,7.649v-7.649h1.239v9.746h-1.325l-5.113-7.65v7.65Zm12.32,0v-8.6H566.1v-1.143h7.718v1.143h-3.212v8.6Zm10.667-1.144h2.078a5.025,5.025,0,0,0,1.511-.179,2.17,2.17,0,0,0,.873-.506,3.109,3.109,0,0,0,.712-1.237,6.069,6.069,0,0,0,.256-1.88,4.565,4.565,0,0,0-.5-2.355,2.518,2.518,0,0,0-1.218-1.1,5.013,5.013,0,0,0-1.668-.2h-2.043Zm-1.293,1.144v-9.746h3.357a8.169,8.169,0,0,1,1.736.138,3.319,3.319,0,0,1,1.429.7,3.946,3.946,0,0,1,1.152,1.665,6.515,6.515,0,0,1,.383,2.319,6.823,6.823,0,0,1-.258,1.966,4.776,4.776,0,0,1-.664,1.42,3.537,3.537,0,0,1-.889.882,3.606,3.606,0,0,1-1.161.49,6.641,6.641,0,0,1-1.568.166Zm9.857,0v-9.746h7.037v1.143h-5.744v2.995h5.376v1.143h-5.376v3.321h5.975v1.144Zm10.787-4h3.321l-1.016-2.7q-.459-1.233-.7-2.035a13.674,13.674,0,0,1-.537,1.876Zm-2.8,4,3.738-9.746h1.419l3.967,9.746h-1.467l-1.127-2.954h-4.1l-1.057,2.954Zm10.093,0v-9.746h1.293v8.6h4.791v1.144Zm-118.974,0v-9.746h1.293v9.746Z" transform="translate(-487.648 -521.522)" fill="#6e6e6e" fill-rule="evenodd"/>
      </g>
    </g>
  </g>
</svg>
