<svg xmlns="http://www.w3.org/2000/svg" width="10.33" height="20.039" viewBox="0 0 10.33 20.039">
  <path id="Icon_ionic-ios-attach" data-name="Icon ionic-ios-attach" d="M19.509,8.023a.7.7,0,0,0-.7.7v8.694a3.606,3.606,0,0,1-.984,2.464,3.539,3.539,0,0,1-2.482,1.06h-.608a3.476,3.476,0,0,1-2.451-1.1,3.59,3.59,0,0,1-1.069-2.469V6.154a2.43,2.43,0,0,1,.774-1.766,2.661,2.661,0,0,1,1.834-.729,2.489,2.489,0,0,1,2.513,2.5V16.628a1.413,1.413,0,0,1-1.3,1.44,1.374,1.374,0,0,1-1.261-1.44V10.653a.7.7,0,1,0-1.4,0v5.975a2.683,2.683,0,0,0,4.566,2.012,2.825,2.825,0,0,0,.783-2.012V6.154a3.909,3.909,0,0,0-3.922-3.9A3.924,3.924,0,0,0,11.03,3.39,3.858,3.858,0,0,0,9.872,6.159V17.374a5,5,0,0,0,1.458,3.488,4.834,4.834,0,0,0,3.4,1.427h.608a4.885,4.885,0,0,0,3.394-1.436A5.024,5.024,0,0,0,19.8,19.306a4.682,4.682,0,0,0,.4-1.883v-8.7A.692.692,0,0,0,19.509,8.023Z" transform="translate(-9.872 -2.25)" fill="#22b1bf"/>
</svg>
