<svg xmlns="http://www.w3.org/2000/svg" width="15.5" height="15.5" viewBox="0 0 15.5 15.5">
  <path id="copy-svgrepo-com" d="M10,8V7c0-.943,0-1.414.293-1.707S11.057,5,12,5h5c.943,0,1.414,0,1.707.293S19,6.057,19,7v5c0,.943,0,1.414-.293,1.707S17.943,14,17,14H16M7,19h5c.943,0,1.414,0,1.707-.293S14,17.943,14,17V12c0-.943,0-1.414-.293-1.707S12.943,10,12,10H7c-.943,0-1.414,0-1.707.293S5,11.057,5,12v5c0,.943,0,1.414.293,1.707S6.057,19,7,19Z" transform="translate(-4.25 -4.25)" fill="none" stroke="#2a313d" stroke-linecap="round" stroke-linejoin="round" stroke-width="1.5"/>
</svg>
