<svg xmlns="http://www.w3.org/2000/svg" width="16.495" height="16.495" viewBox="0 0 16.495 16.495">
  <g id="Icon_ionic-ios-checkmark-circle-outline" data-name="Icon ionic-ios-checkmark-circle-outline" transform="translate(-3.375 -3.375)">
    <path id="Path_29161" data-name="Path 29161" d="M18.928,12.972l-.7-.718a.15.15,0,0,0-.111-.048h0a.144.144,0,0,0-.111.048L13.17,17.127l-1.76-1.76a.153.153,0,0,0-.222,0l-.706.706a.158.158,0,0,0,0,.226l2.22,2.22a.7.7,0,0,0,.464.226.736.736,0,0,0,.46-.218h0l5.3-5.329A.17.17,0,0,0,18.928,12.972Z" transform="translate(-3.078 -3.851)" fill="#86c455"/>
    <path id="Path_29162" data-name="Path 29162" d="M11.622,4.485a7.134,7.134,0,1,1-5.048,2.09,7.09,7.09,0,0,1,5.048-2.09m0-1.11a8.247,8.247,0,1,0,8.247,8.247,8.246,8.246,0,0,0-8.247-8.247Z" fill="#86c455"/>
  </g>
</svg>
