<svg xmlns="http://www.w3.org/2000/svg" width="22.834" height="18.543" viewBox="0 0 22.834 18.543">
  <g id="Group_28588" data-name="Group 28588" transform="translate(-1.9 -7.556)">
    <path id="Path_31389" data-name="Path 31389" d="M18,7.8a.415.415,0,0,0-.581,0L15.282,9.888a.419.419,0,0,0-.125.3v.185l.377.377a1.634,1.634,0,0,1-.242.2,2.74,2.74,0,0,1-1.578.313,3,3,0,0,0-2.012.506l-.038.038-.559-.543.242-.238h0a.419.419,0,0,0,.125-.3v-.185L9.209,8.34a.415.415,0,0,0-.577,0L2.125,14.7A.419.419,0,0,0,2,14.975v.185l2.265,2.193a.419.419,0,0,0,.581,0L5.1,17.1l1.378,1.34-.468.457h0a1.178,1.178,0,0,0-.355.853,1.359,1.359,0,0,0,.419.962,1.4,1.4,0,0,0,.955.4,1.359,1.359,0,0,0,.415.936,1.4,1.4,0,0,0,.97.415,1.359,1.359,0,0,0,.377.936,1.4,1.4,0,0,0,.955.4,1.359,1.359,0,0,0,.415.936,1.4,1.4,0,0,0,.974.4A1.223,1.223,0,0,0,12,24.8l.483-.472,1.264,1.215a1.366,1.366,0,0,0,1.887,0,1.3,1.3,0,0,0,.408-.944h.026a1.355,1.355,0,0,0,.947-.377,1.3,1.3,0,0,0,.4-.944h.026a1.355,1.355,0,0,0,.947-.377,1.3,1.3,0,0,0,.4-.936h.026a1.355,1.355,0,0,0,.947-.377,1.3,1.3,0,0,0,0-1.887l-.683-.664,2.461-2.4h0l.26.253a.419.419,0,0,0,.581,0l2.14-2.083a.419.419,0,0,0,.121-.3v-.185ZM4.555,16.6,2.9,14.975,8.941,9.1l1.653,1.608L6.065,15.119l-1.51,1.461h0ZM6.6,20.191a.6.6,0,0,1-.189-.423.427.427,0,0,1,.125-.309l1.5-1.464a.57.57,0,0,1,.781.06.6.6,0,0,1,.189.423.426.426,0,0,1-.125.309l-1.51,1.457a.57.57,0,0,1-.778-.053Zm1.37,1.336a.6.6,0,0,1-.189-.423.426.426,0,0,1,.125-.309l1.51-1.457a.57.57,0,0,1,.781.06.6.6,0,0,1,.189.423.423.423,0,0,1-.128.309l-1.51,1.457a.57.57,0,0,1-.781-.06Zm1.37,1.332a.6.6,0,0,1-.189-.423.426.426,0,0,1,.125-.309h0l.755-.755.755-.717a.57.57,0,0,1,.781.06.6.6,0,0,1,.189.423.426.426,0,0,1-.125.309L10.156,22.9l-.038.038h0a.57.57,0,0,1-.781-.079Zm2.151,1.4a.57.57,0,0,1-.781-.06.6.6,0,0,1-.189-.423.427.427,0,0,1,.128-.309l.038-.038,1.457-1.419a.57.57,0,0,1,.781.06.6.6,0,0,1,.189.423.423.423,0,0,1-.128.309l-.755.736h0Zm3.793.343a.551.551,0,0,1-.17.4.608.608,0,0,1-.842,0l-1.23-1.2.468-.457a1.159,1.159,0,0,0,.276-.442l1.329,1.291a.551.551,0,0,1,.17.408Zm4.11-4a.551.551,0,0,1-.17.4.608.608,0,0,1-.842,0l-1.51-1.468a.38.38,0,0,0-.532.544l1.51,1.468a.547.547,0,0,1,0,.793.608.608,0,0,1-.845,0L15.5,20.86a.377.377,0,1,0-.521.532l1.51,1.468a.551.551,0,0,1,0,.793.608.608,0,0,1-.845,0l-1.51-1.468a.377.377,0,0,0-.336-.094,1.381,1.381,0,0,0-.347-.574,1.4,1.4,0,0,0-.955-.389,1.355,1.355,0,0,0-.415-.936,1.4,1.4,0,0,0-.955-.4,1.359,1.359,0,0,0-.415-.936,1.4,1.4,0,0,0-.955-.4,1.355,1.355,0,0,0-.415-.936,1.325,1.325,0,0,0-1.834-.06l-.483.472-1.378-1.34,4.941-4.812.555.551L9.36,14.054a1.3,1.3,0,0,0,0,1.887,1.366,1.366,0,0,0,1.887,0L13.04,14.2l4.676,4.552h0l1.51,1.468A.547.547,0,0,1,19.4,20.6Zm-.864-2.129-.3-.276h0l-4.907-4.8h0a.377.377,0,0,0-.525,0l-2.057,2a.608.608,0,0,1-.842,0,.547.547,0,0,1,0-.793l2.057-2,.026-.03a1.449,1.449,0,0,1,.219-.211,2.36,2.36,0,0,1,1.547-.343,3.4,3.4,0,0,0,1.974-.438,2.408,2.408,0,0,0,.377-.3l4.907,4.79Zm3.563-2.4L16.056,10.19l1.653-1.608,6.039,5.877Z" fill="#22b1bf" stroke="#22b1bf" stroke-width="0.2"/>
    <path id="Path_31390" data-name="Path 31390" d="M8.412,18.766a.272.272,0,1,0-.121.094A.377.377,0,0,0,8.412,18.766Zm12.621-5.337a.378.378,0,0,0,.411.615.328.328,0,0,0,.121-.083.376.376,0,1,0-.532-.532Z" transform="translate(-3.592 -3.507)" fill="#22b1bf" stroke="#22b1bf" stroke-width="0.2"/>
  </g>
</svg>
