<svg xmlns="http://www.w3.org/2000/svg" width="20" height="15.007" viewBox="0 0 20 15.007">
  <g id="email-solid" transform="translate(-1.93 -5.989)">
    <path id="Path_24619" data-name="Path 24619" d="M21.537,6a1.3,1.3,0,0,0-.257,0H3.722a1.3,1.3,0,0,0-.332.048l9.061,8.712Z" transform="translate(-0.576)" fill="#76f214"/>
    <path id="Path_24620" data-name="Path 24620" d="M21.855,7.39l-9.1,9.08a1.248,1.248,0,0,1-1.762,0L1.974,7.459a1.255,1.255,0,0,0-.044.313V20.3a1.251,1.251,0,0,0,1.25,1.252h17.5A1.251,1.251,0,0,0,21.93,20.3V7.772a1.255,1.255,0,0,0-.075-.382ZM4.036,20.3H3.168v-.9l4.544-4.515.881.883Zm16.631,0h-.875l-4.556-4.528.881-.883L20.661,19.4Z" transform="translate(0 -0.553)" fill="#76f214"/>
  </g>
</svg>
