<svg xmlns="http://www.w3.org/2000/svg" width="17.775" height="16.375" viewBox="0 0 17.775 16.375">
  <path id="Path_31388" data-name="Path 31388" d="M12.795,21.235a.735.735,0,0,1-.522-.213L5.519,14.268a5.513,5.513,0,0,1,7.276-8.254,5.527,5.527,0,0,1,7.276.456h0a5.527,5.527,0,0,1,0,7.8l-6.754,6.754A.735.735,0,0,1,12.795,21.235ZM9.414,6.33A4.013,4.013,0,0,0,6.555,7.513a4.057,4.057,0,0,0,0,5.718l6.24,6.233,6.24-6.233a4.057,4.057,0,0,0,0-5.718h0a4.042,4.042,0,0,0-5.718,0,.735.735,0,0,1-1.044,0A4.013,4.013,0,0,0,9.414,6.33Z" transform="translate(-3.906 -4.86)" fill="#22b1bf"/>
</svg>
