<svg id="Group_27305" data-name="Group 27305" xmlns="http://www.w3.org/2000/svg" width="19.964" height="19.964" viewBox="0 0 19.964 19.964">
  <path id="Path_29518" data-name="Path 29518" d="M12,8.916v6.729a4.99,4.99,0,0,0,4.991,4.991h0a4.99,4.99,0,0,0,4.991-4.991V7.327A3.326,3.326,0,0,0,18.655,4h0a3.326,3.326,0,0,0-3.327,3.327v7.636a1.663,1.663,0,0,0,1.664,1.664h0a1.663,1.663,0,0,0,1.664-1.664V8.991" transform="translate(-7.009 -2.336)" fill="none" stroke="#767676" stroke-linecap="round" stroke-linejoin="round" stroke-width="1.5"/>
  <path id="Path_29519" data-name="Path 29519" d="M0,0H19.964V19.964H0Z" fill="none"/>
</svg>
