<svg xmlns="http://www.w3.org/2000/svg" width="24" height="23.997" viewBox="0 0 24 23.997">
  <g id="noun_Phone_2640499" transform="translate(-9.689 -9.691)">
    <g id="Group_16850" data-name="Group 16850" transform="translate(9.689 9.691)">
      <path id="Path_21412" data-name="Path 21412" d="M32.526,27.433,29.041,25a2.687,2.687,0,0,0-3.745.666l-.809,1.159a29.963,29.963,0,0,1-4.31-3.621,29.925,29.925,0,0,1-3.62-4.31l1.159-.809a2.686,2.686,0,0,0,.666-3.746l-2.434-3.484a2.692,2.692,0,0,0-2.2-1.163,2.523,2.523,0,0,0-.876.157,4.825,4.825,0,0,0-.906.445l-.481.339a3.648,3.648,0,0,0-.339.3,4.833,4.833,0,0,0-1.239,2.208c-1,3.76,1.482,9.445,6.183,14.146,3.948,3.948,8.69,6.4,12.377,6.4h0a6.866,6.866,0,0,0,1.769-.219,4.832,4.832,0,0,0,2.208-1.239,3.657,3.657,0,0,0,.318-.36l.339-.484a4.845,4.845,0,0,0,.429-.882A2.647,2.647,0,0,0,32.526,27.433Zm0,2.7a3.775,3.775,0,0,1-.316.661l-.307.439a2.631,2.631,0,0,1-.215.24,3.776,3.776,0,0,1-1.725.96,5.815,5.815,0,0,1-1.491.182c-3.412,0-7.863-2.332-11.617-6.086-4.369-4.37-6.8-9.76-5.9-13.107a3.771,3.771,0,0,1,.96-1.725,2.675,2.675,0,0,1,.218-.2l.436-.307a3.724,3.724,0,0,1,.685-.332,1.449,1.449,0,0,1,.5-.09,1.616,1.616,0,0,1,1.315.7L17.5,14.954a1.611,1.611,0,0,1-.4,2.248l-1.586,1.107a.538.538,0,0,0-.148.727,29.736,29.736,0,0,0,4.049,4.928,29.794,29.794,0,0,0,4.928,4.05.539.539,0,0,0,.727-.148l1.107-1.586a1.655,1.655,0,0,1,2.248-.4l3.483,2.434A1.572,1.572,0,0,1,32.523,30.132Z" transform="translate(-9.689 -9.691)" fill="#22b1bf"/>
    </g>
  </g>
</svg>
