<svg xmlns="http://www.w3.org/2000/svg" width="21.98" height="19.173" viewBox="0 0 21.98 19.173">
  <g id="Group_27279" data-name="Group 27279" transform="translate(-5 -23.827)">
    <path id="Path_29511" data-name="Path 29511" d="M8,32h2a2.006,2.006,0,0,1,2,2v6a2.006,2.006,0,0,1-2,2H8a2.006,2.006,0,0,1-2-2V34A2.006,2.006,0,0,1,8,32Z" fill="none" stroke="#5ebc0d" stroke-linecap="round" stroke-linejoin="round" stroke-width="2"/>
    <path id="Path_29512" data-name="Path 29512" d="M12,40a2.006,2.006,0,0,0,2,2h7.51a2,2,0,0,0,1.92-1.43l2.4-6a1.97,1.97,0,0,0-.11-1.76A2.228,2.228,0,0,0,24,32H20V27.07a2.2,2.2,0,0,0-4.03-1.22L12,32Z" fill="none" stroke="#5ebc0d" stroke-linecap="round" stroke-linejoin="round" stroke-width="2"/>
  </g>
</svg>
