<svg xmlns="http://www.w3.org/2000/svg" width="13.91" height="13.86" viewBox="0 0 13.91 13.86">
  <g id="Layer_2" data-name="Layer 2" transform="translate(-3.996 -4.058)">
    <path id="edit" d="M17.388,6.911,15.006,4.529a1.739,1.739,0,0,0-2.313-.061L4.869,12.293a1.739,1.739,0,0,0-.5,1.052L4,16.97a.867.867,0,0,0,.869.948h.078l3.625-.33a1.739,1.739,0,0,0,1.052-.5l7.824-7.824a1.669,1.669,0,0,0-.061-2.356ZM8.416,15.848l-2.608.243.235-2.608,4.912-4.851L13.3,10.98Zm6.016-6.033L12.1,7.485l1.7-1.739L16.171,8.12Z" fill="#22b1bf"/>
  </g>
</svg>
