<svg xmlns="http://www.w3.org/2000/svg" width="29.175" height="29.175" viewBox="0 0 29.175 29.175">
  <g id="password" transform="translate(-2 -2)">
    <path id="Path_29036" data-name="Path 29036" d="M24.041,39.528a.663.663,0,0,0,.938,0l.275-.275v.388a.663.663,0,0,0,1.326,0v-.388l.275.275a.663.663,0,1,0,.938-.938l-.938-.938.938-.938a.663.663,0,1,0-.938-.938l-.275.275v-.388a.663.663,0,0,0-1.326,0v.388l-.275-.275a.663.663,0,1,0-.938.938l.938.938-.938.938a.663.663,0,0,0,0,.938Zm5.968,0a.663.663,0,0,0,.938,0l.275-.275v.388a.663.663,0,0,0,1.326,0v-.388l.275.275a.663.663,0,1,0,.938-.938l-.938-.938.938-.938a.663.663,0,1,0-.938-.938l-.275.275v-.388a.663.663,0,0,0-1.326,0v.388l-.275-.275a.663.663,0,1,0-.938.938l.938.938-.938.938A.663.663,0,0,0,30.009,39.528Zm-11.935,0a.663.663,0,0,0,.938,0l.275-.275v.388a.663.663,0,0,0,1.326,0v-.388l.275.275a.663.663,0,1,0,.938-.938l-.938-.938.938-.938a.663.663,0,1,0-.938-.938l-.275.275v-.388a.663.663,0,0,0-1.326,0v.388l-.275-.275a.663.663,0,1,0-.938.938l.938.938-.938.938a.663.663,0,0,0,0,.938Z" transform="translate(-5.35 -11.119)" fill="#22b1bf"/>
    <path id="Path_29037" data-name="Path 29037" d="M29.849,21.892H23.218V12.609a2.655,2.655,0,0,0-2.652-2.652H19.24V6.642A4.647,4.647,0,0,0,14.6,2H10.62A4.647,4.647,0,0,0,5.978,6.642V9.957H4.652A2.655,2.655,0,0,0,2,12.609V25.871a2.655,2.655,0,0,0,2.652,2.652h5.3v1.326a1.328,1.328,0,0,0,1.326,1.326H29.849a1.328,1.328,0,0,0,1.326-1.326V23.218a1.328,1.328,0,0,0-1.326-1.326ZM7.3,6.642A3.319,3.319,0,0,1,10.62,3.326H14.6a3.319,3.319,0,0,1,3.315,3.315V9.957H7.3ZM4.652,27.2a1.328,1.328,0,0,1-1.326-1.326V12.609a1.328,1.328,0,0,1,1.326-1.326H20.566a1.328,1.328,0,0,1,1.326,1.326v9.283H11.283a1.328,1.328,0,0,0-1.326,1.326V27.2Zm25.2,2.652H11.283V23.218l18.566,0Z" fill="#22b1bf"/>
  </g>
</svg>
