<svg xmlns="http://www.w3.org/2000/svg" width="33" height="33" viewBox="0 0 33 33">
  <g id="pdf-svgrepo-com" transform="translate(-0.805 -0.435)">
    <rect id="Rectangle_17523" data-name="Rectangle 17523" width="33" height="33" rx="5" transform="translate(0.805 0.435)" fill="#c80a0a"/>
    <path id="Path_29489" data-name="Path 29489" d="M115.022,111.659c-.6-.67-1.942-1-3.75-1a24.171,24.171,0,0,0-3.549.335,16.874,16.874,0,0,1-3.482-4.62,18.727,18.727,0,0,0,1.138-5.424c0-1.138-.4-2.946-2.009-2.946a1.381,1.381,0,0,0-1.138.67c-.67,1.205-.4,3.884.87,6.7a60.13,60.13,0,0,1-3.348,7.834c-3.549,1.473-5.892,3.08-6.093,4.352-.134.6.268,1.607,1.674,1.607,2.076,0,4.352-3.013,6.093-6.093a41.914,41.914,0,0,1,6.16-1.607A9.04,9.04,0,0,0,113.415,114C115.557,114,115.758,112.463,115.022,111.659ZM102.567,98.87c.536-.8,1.741-.536,1.741,1.071a17.052,17.052,0,0,1-1,4.821C102.1,101.951,102.1,99.741,102.567,98.87Zm-8.5,18.748c.2-1.071,2.21-2.544,5.357-3.817-1.741,2.946-3.482,4.821-4.553,4.821A.819.819,0,0,1,94.064,117.619Zm13.191-6.562a38.434,38.434,0,0,0-5.558,1.473,30.334,30.334,0,0,0,2.41-5.624A21.894,21.894,0,0,0,107.254,111.057Zm.87.268a16.794,16.794,0,0,1,4.754-.134c1.942.4,1.272,2.745-.87,2.21A9.445,9.445,0,0,1,108.125,111.325Z" transform="translate(-87.41 -91.438)" fill="#fff"/>
  </g>
</svg>
