<svg id="Group_27287" data-name="Group 27287" xmlns="http://www.w3.org/2000/svg" width="12.179" height="12.178" viewBox="0 0 12.179 12.178">
  <path id="Path_29514" data-name="Path 29514" d="M7.233,14.345l1.722-.2a1.35,1.35,0,0,1,1.112.386l1.247,1.247a10.2,10.2,0,0,0,4.468-4.468L14.528,10.06a1.35,1.35,0,0,1-.386-1.112l.2-1.708a1.357,1.357,0,0,1,1.349-1.2H16.86a1.345,1.345,0,0,1,1.356,1.4A11.519,11.519,0,0,1,7.443,18.216a1.345,1.345,0,0,1-1.4-1.356V15.687A1.344,1.344,0,0,1,7.233,14.345Z" transform="translate(-6.04 -6.04)" fill="#22b1bf"/>
</svg>
