<svg xmlns="http://www.w3.org/2000/svg" width="20" height="16" viewBox="0 0 20 16">
  <path id="Path_31383" data-name="Path 31383" d="M19,4H5A3,3,0,0,0,2,7V17a3,3,0,0,0,3,3H19a3,3,0,0,0,3-3V7A3,3,0,0,0,19,4ZM5,19a2,2,0,0,1-2-2V14.277l3.764-3.764a1.751,1.751,0,0,1,2.473,0L17.732,19Zm16-2a2,2,0,0,1-1.866,1.986l-5.424-5.418,1.054-1.054a1.787,1.787,0,0,1,2.473,0L21,16.277Zm0-2.137-3.057-3.057a2.75,2.75,0,0,0-3.887,0L13,12.862,9.943,9.807a2.75,2.75,0,0,0-3.887,0L3,12.863V7A2,2,0,0,1,5,5H19a2,2,0,0,1,2,2Z" transform="translate(-2 -4)" fill="#22b1bf"/>
</svg>
