<svg xmlns="http://www.w3.org/2000/svg" width="14.048" height="14.016" viewBox="0 0 14.048 14.016">
  <path id="Path_31133" data-name="Path 31133" d="M-10.4-7.072a.17.17,0,0,0-.192-.192h-4.9a.283.283,0,0,1-.32-.32v-2.5a.283.283,0,0,1,.32-.32h4.9a.17.17,0,0,0,.192-.192V-15.52a.283.283,0,0,1,.32-.32h2.592a.283.283,0,0,1,.32.32v4.928a.17.17,0,0,0,.192.192h4.9a.283.283,0,0,1,.32.32v2.5a.283.283,0,0,1-.32.32h-4.9a.17.17,0,0,0-.192.192v4.928a.283.283,0,0,1-.32.32H-10.08a.283.283,0,0,1-.32-.32Z" transform="translate(15.808 15.84)" fill="#22b1bf"/>
</svg>
