<svg xmlns="http://www.w3.org/2000/svg" width="30.463" height="30.463" viewBox="0 0 30.463 30.463">
  <g id="saudi" transform="translate(-16 -16)">
    <path id="Path_28963" data-name="Path 28963" d="M31.231,16A15.231,15.231,0,1,0,46.463,31.231,15.231,15.231,0,0,0,31.231,16Z" fill="#479951"/>
    <path id="Path_28964" data-name="Path 28964" d="M174.072,105.422a.216.216,0,0,0-.1.039.749.749,0,0,0-.315.529c-.006.139-.032.138.058.227.066.095.131.085.264.016a.281.281,0,0,0,.127-.186c.032-.158-.166.075-.191-.1-.044-.163.082-.23.2-.388C174.119,105.484,174.12,105.424,174.072,105.422Zm1.93.011c-.037,0-.082.052-.145.166a.7.7,0,0,0-.1.673,1.013,1.013,0,0,1-.092,1.333.331.331,0,0,1-.427.058.456.456,0,0,1-.255-.359,4.927,4.927,0,0,0-.039-1.158.21.21,0,0,0-.351-.071,2.644,2.644,0,0,0-.636,1.3c-.1.317-.2.225-.276.1-.179-.168-.191-1.478-.407-1.262-.346.988.2,2.071.575,1.965.272.113.445-.405.556-.972.076-.159.134-.177.174-.1-.01.754.054.922.248,1.151a.626.626,0,0,0,.818.014l.336-.336a.2.2,0,0,1,.28-.014c.1.093.09.255.31.367a.681.681,0,0,0,.673-.142c.124-.212.153-.284.211-.365.088-.117.239-.065.239-.028-.014.065-.1.13-.042.248.1.079.129.028.191.011.219-.1.384-.581.384-.581.01-.177-.091-.164-.156-.127-.084.051-.089.069-.173.12-.107.016-.315.087-.418-.073a6.307,6.307,0,0,1-.186-.652c0-.014-.14-.3-.011-.322.065.012.206.049.228-.069.069-.115-.148-.44-.3-.6a.318.318,0,0,0-.476-.014c-.12.11-.1.234-.126.351a.548.548,0,0,0,.112.478,1.454,1.454,0,0,1,.266.967.388.388,0,0,1-.349.177c-.093-.02-.244-.06-.324-.653-.061-.449.015-1.078-.175-1.372-.043-.111-.08-.219-.142-.211Zm-.611.048c-.058,0-.121.072-.174.2a3.28,3.28,0,0,0-.09.614c-.036.154.16.219.25.021a1.88,1.88,0,0,0,.143-.669C175.5,105.532,175.448,105.475,175.391,105.48Zm2.256.041c-.059.005-.106.04-.124.127a1.344,1.344,0,0,0,.023.489,1.728,1.728,0,0,0,.274.416c.391.525.767,1.053,1.13,1.6q.084.6.126,1.2a24.1,24.1,0,0,1,.023,2.856c.162.006.422-.262.513-.655a19.054,19.054,0,0,0-.027-1.974c0-.133-.012-.292-.021-.459q.664,1.085,1.234,2.224c.147-.07.114-.9.028-1.011-.322-.693-.767-1.377-.908-1.64-.051-.095-.225-.36-.432-.666-.038-.436-.079-.806-.106-.917-.066-.461.19.052.154-.216a2.951,2.951,0,0,0-.637-1.2c-.1-.137-.095-.165-.244.034a.879.879,0,0,0-.062.529q-.074-.108-.158-.209c-.259-.222-.275-.235-.49-.416a.531.531,0,0,0-.3-.113Zm6.685.069c-.029,0-.06.01-.1.062a.4.4,0,0,0-.138.3c.016.243.06.492.076.735l.018.1a.947.947,0,0,0-.062-.073c-.474-.5.218-.081-.09-.466a3.688,3.688,0,0,0-.559-.549c-.112-.072-.179-.21-.216.025a4.633,4.633,0,0,0-.016.62.833.833,0,0,0,.186.386q.493.607.963,1.232c.068.879.087,1.685.156,2.565-.01.377-.126.877-.235.924,0,0-.168.1-.28-.011a3.36,3.36,0,0,1-.407-.544.248.248,0,0,0-.4,0,5.471,5.471,0,0,0-.7,1.315c-.057.091-.219.168-.4-.007a1.855,1.855,0,0,1-.246-1.282,1.417,1.417,0,0,0-.135,1.379,1.082,1.082,0,0,0,.5.572.353.353,0,0,0,.524-.057c.239-.248.242-.88.354-1.006a.209.209,0,0,1,.372-.089.914.914,0,0,0,.34.294.571.571,0,0,0,.751.053.87.87,0,0,0,.4-.489,17.146,17.146,0,0,0,.032-2.755c.168.237.334.479.5.724a17.953,17.953,0,0,1,.081,2.256c-.017.145.5-.432.5-.7,0-.239,0-.455,0-.657.253.4.5.815.729,1.231.143-.076.094-.888,0-1-.242-.407-.553-.846-.793-1.186-.048-.429-.112-.936-.142-1.091-.046-.242-.092-.605-.161-.892a3.046,3.046,0,0,1-.058-.5c.028-.08.135,0,.188-.09a3.216,3.216,0,0,0-.451-1.257c-.064-.117-.18-.076-.324.113-.133.125-.085.409-.034.68.132.69.25,1.392.343,2.093q-.293-.436-.591-.868c-.006-.029-.027-.135-.027-.136s-.029-.564-.053-.7c0-.053-.017-.069.039-.062a.323.323,0,0,0,.1.069c.06.011.112-.09.076-.184l-.556-1.027a.155.155,0,0,0-.076-.05Zm-17.254.018c-.1,0-.216.061-.172.184-.026.067.2.295.241.42.036.089-.035.375.039.4s.162-.2.2-.409c.02-.115,0-.51-.264-.591a.221.221,0,0,0-.042-.005Zm19.655,0c-.023,0-.052.04-.1.133a1.23,1.23,0,0,0-.1.752,41.363,41.363,0,0,1,.48,4.885,1.584,1.584,0,0,1-.1.4,3.225,3.225,0,0,1-.469.547c-.155.116-.485.226-.593.312-.342.2-.344.426-.067.434a1.706,1.706,0,0,0,1.431-.682,2.274,2.274,0,0,0,.232-.883,20.614,20.614,0,0,0-.26-4.322,2.142,2.142,0,0,1-.046-.405c.031-.079.187.008.242-.083.082-.083-.4-.7-.574-.97C186.784,105.662,186.763,105.607,186.733,105.61Zm-5,.027c-.02,0-.049.033-.1.1a2.335,2.335,0,0,0-.129,1.062,23.1,23.1,0,0,1,.637,5.115c.162,0,.35-.371.43-.74a6.275,6.275,0,0,0-.042-1.115c-.013-.3-.338-2.72-.4-2.946-.079-.427.316-.056.273-.3-.137-.313-.478-.769-.584-1.041-.04-.073-.045-.14-.078-.135Zm-12.183.034a.127.127,0,0,0-.1.1c-.009.037.016.1-.018.119s-.093.006-.09-.1a.173.173,0,0,0-.039-.089.077.077,0,0,0-.051-.012c-.032,0-.032.01-.05.037a.307.307,0,0,0-.018.087c0,.037-.019.049-.046.055s-.023,0-.048-.012-.032-.022-.032-.05a.292.292,0,0,0-.016-.092.1.1,0,0,0-.057-.032c-.127,0-.137.147-.129.2-.01.01-.014.27.159.342.233.111.67.064.652-.312,0-.033-.007-.145-.011-.175a.1.1,0,0,0-.11-.069Zm3.127,0a.521.521,0,0,0-.212.058.4.4,0,0,0-.069.533c.118.056.236.175.158.241-.335.358-1.206.955-1.25,1.064l0,0a.025.025,0,0,0,0,0,.01.01,0,0,0,0,0l0,0,0,0h0l0,0h0l0,0a2.48,2.48,0,0,0,.65,0l0,0h0s0,0,0,0a9.173,9.173,0,0,0,1.076-1.085c-.046-.039-.089-.069-.135-.108s-.044-.085,0-.127a.353.353,0,0,0,.035-.538.574.574,0,0,0-.266-.053Zm8.173,0c-.023,0-.052.038-.1.131a1.492,1.492,0,0,0-.168.752c.228,1.576.3,2.955.446,4.531a.623.623,0,0,1-.112.462,4.441,4.441,0,0,1-1.5,1.1c-.063.071.157.374.443.374a1.678,1.678,0,0,0,1.285-1.029,1.834,1.834,0,0,0,.292-.79,17.237,17.237,0,0,0-.321-4,.662.662,0,0,1,.014-.28c.031-.037.136,0,.191-.09.082-.083-.218-.774-.388-1.039-.034-.067-.055-.12-.085-.117Zm-12.661.048a.21.21,0,0,0-.158.133,4.567,4.567,0,0,0,.016.738,8.059,8.059,0,0,1,.207,1.186c.015.56-.324.242-.308-.035a2.524,2.524,0,0,0-.012-1.073c-.055-.144-.119-.179-.253-.156-.107-.007-.382.293-.459.79a4.681,4.681,0,0,0-.092.482c-.038.256-.207.438-.326-.035-.1-.344-.165-1.192-.336-.993-.049.662-.107,1.826.455,1.946.68.065.3-1.15.551-1.37.047-.109.133-.111.14.027V108.4a.5.5,0,0,0,.386.5c.178-.014.3-.009.367.165q.042.893.085,1.786s.412.118.432-1a10.5,10.5,0,0,1-.042-1.34c0-.126.165-.132.276-.071.178.125.257.28.533.218.42-.116.674-.32.68-.643a2.8,2.8,0,0,0-.193-.921c.019-.056-.08-.2-.062-.257.076.118.19.108.216,0a.921.921,0,0,0-.363-.559c-.149-.131-.366-.1-.446.17a1.488,1.488,0,0,0,.343.993.974.974,0,0,1,.087.5.265.265,0,0,1-.345-.067s-.335-.25-.335-.306a1.2,1.2,0,0,0-.03-.791,1.069,1.069,0,0,0-.221-.436c-.084-.089-.2-.089-.251,0a1.5,1.5,0,0,0,.028,1.053c.077.227.2.368.14.368-.046.128-.142.1-.211-.05a3.681,3.681,0,0,1-.119-.967c-.03-.255-.063-.8-.23-.937a.159.159,0,0,0-.149-.076Zm2.388,0c-.034,0-.071.023-.115.034a.337.337,0,0,0-.237.414c.171,1.039.282,1.831.453,2.87.026.122-.076.282-.207.266-.224-.151-.279-.457-.66-.444a.743.743,0,0,0-.63.593,1.44,1.44,0,0,0,0,.68.553.553,0,0,0,.63.156c.168-.069.305-.234.365-.195h0s0,0,0,0c.037.064,0,.6-.79,1.022-.483.217-.868.269-1.075-.126-.128-.246.009-1.185-.306-.968-.933,2.406,2.187,2.742,2.535.1.023-.075.091-.149.14-.131.021.009.041.038.048.092-.072,2.393-2.414,2.557-2.812,1.8a2.32,2.32,0,0,1-.138-.809.4.4,0,0,0-.1-.259c-.095-.071-.222.115-.25.437a2.9,2.9,0,0,0-.028.581c.125,1.89,3.138,1.078,3.628-.483a5.2,5.2,0,0,0,.076-1.491l0,0,0,0,0,0,.011,0c.3.322.719.041.811-.071a.135.135,0,0,1,.207-.02.484.484,0,0,0,.728-.207,6.554,6.554,0,0,0,.1-.9.909.909,0,0,0-.324.135.086.086,0,0,0-.023.042c-.013.086-.026.171-.039.257a.064.064,0,0,1-.007.02.083.083,0,0,1-.028.027c-.054.029-.147.013-.152-.065-.072-.329-.37-.371-.551.138-.122.1-.343.118-.366-.03.03-.342-.108-.388-.384-.227-.089-.677-.177-1.324-.266-2,.115,0,.221.08.326-.051a3.8,3.8,0,0,0-.49-1.142l0,0a.18.18,0,0,0-.028-.027l-.009-.005-.018-.007a.091.091,0,0,0-.037,0Zm9.311.005c-.119,0-.252.072-.2.221-.03.082.257.358.3.51.083.233-.064.455.023.487s.19-.24.232-.5a.771.771,0,0,0-.308-.717.247.247,0,0,0-.05-.005Zm-7.254.255a.176.176,0,0,1,.152.115c.034.075.017.147-.039.161s-.129-.036-.163-.112-.017-.149.039-.163l.011,0Zm13.456.349a.176.176,0,0,0-.181.241c-.027.088.232.388.274.552.038.117-.058.493.021.528s.175-.26.212-.536c.021-.151-.091-.683-.281-.777A.2.2,0,0,0,186.087,106.338Zm-7.44.184c.01.044.02.089.027.135.022.1.042.2.062.292-.086-.118-.157-.214-.188-.248C178.353,106.47,178.552,106.549,178.647,106.522Zm1.714.843a.13.13,0,0,0-.1.1c-.009.037.018.1-.016.117s-.1.008-.092-.1a.18.18,0,0,0-.039-.09.077.077,0,0,0-.051-.012c-.032,0-.032.01-.05.037a.323.323,0,0,0-.018.087c0,.037-.017.049-.044.055s-.025,0-.05-.012-.032-.022-.032-.05a.291.291,0,0,0-.016-.092.1.1,0,0,0-.057-.03c-.127,0-.135.145-.127.2-.01.01-.016.271.158.343.233.111.672.062.653-.313,0-.033-.009-.145-.012-.175a.1.1,0,0,0-.11-.069Zm-7.825.078a.189.189,0,0,0-.11.034.48.48,0,0,0-.158.636.311.311,0,0,0,.335.108c.2.025.322-.379.322-.379s.006-.114-.234.1c-.1.019-.115-.018-.14-.074a.5.5,0,0,1,.032-.317c.022-.063,0-.1-.048-.108Zm11.062.051a.261.261,0,0,0-.267.225c0,.092.042.143.034.227-.012.048-.061.079-.179.023.018-.017-.076-.15-.076-.15-.092-.056-.214,0-.294.055a.448.448,0,0,0-.027.356c.132.243.583.658.8.662,0-.219.025-.511.037-.692.005-.068.021-.144.087-.161s.179.066.181-.005a.94.94,0,0,0-.119-.443A.222.222,0,0,0,183.6,107.494Zm-9.157.763-.009.005-.005,0a1.132,1.132,0,0,1-.11.1c-.1.115-.12.2-.113.427.006.024.192.543.351.908a2.817,2.817,0,0,1,.133,1.223,3.013,3.013,0,0,1-1.236,1.292.646.646,0,0,1-.517,0l0,0a.32.32,0,0,1-.136-.294v0l0,0a2.913,2.913,0,0,0,1.241-1.284,1.314,1.314,0,0,0,.034-.924.879.879,0,0,0-.209-.428l0,0c.07-.033.25.1.278.016a1.346,1.346,0,0,0-.356-.657.3.3,0,0,0-.437-.027c-.15.084-.182.384-.11.646.08.2.3.232.452.63v0c0,.025.053.3-.025.407a4.876,4.876,0,0,1-.931.875l-.005,0,0,0,0,0,0,0h0l0,0v0l0,0c0-.016,0-.057,0-.122-.005-.12.044-.391.041-.437v0l0,0v0h0c-.268.173-.356.7-.405.861a12.717,12.717,0,0,0-1.893,1.292c-.231.361,1.592-.414,1.8-.508l.005.005c.04.044.044.2.165.338a.964.964,0,0,0,.984.317,3.123,3.123,0,0,0,1.422-1.183c.055-.08.141-.143.221-.081a2.227,2.227,0,0,0,2.017,1.059c.229-.278.119-.415.027-.473-.029-.019-.491-.2-.563-.379-.045-.167.065-.315.285-.427a9.911,9.911,0,0,0,1.861-.356,1.637,1.637,0,0,1,.205-.637.3.3,0,0,1,.1-.113l0,0,0,0,0,0v0a.057.057,0,0,0,0-.018l-.1-.06-2.024-.009a.217.217,0,0,1-.055-.028l0,0,0,0,0,0,0,0,0,0v0l0,0v-.014l0,0,0,0a.152.152,0,0,1,.064-.037c.483-.066,1.342-.207,1.4-1.032a.678.678,0,1,0-1.331.028c-.019.111.038.329-.076.354-.744.068-1.556.534-1.583.868h0l0,0,0,0h0l-.005,0h-.011l-.007,0a.194.194,0,0,1-.1-.205,3.991,3.991,0,0,0-.51-1.732c-.1-.1-.151-.147-.181-.152h-.014Zm1.937.3a.127.127,0,0,0-.1.1c-.009.037.018.1-.016.119s-.1.008-.092-.1a.18.18,0,0,0-.039-.09.072.072,0,0,0-.05-.012c-.032,0-.033.01-.051.037a.323.323,0,0,0-.018.087c0,.037-.017.05-.044.055s-.023,0-.048-.012-.034-.022-.034-.05a.294.294,0,0,0-.014-.092.1.1,0,0,0-.058-.03c-.127,0-.135.145-.127.2-.01.01-.016.271.158.344.233.111.788.046.653-.313,0-.033-.009-.145-.012-.175A.1.1,0,0,0,176.378,108.562Zm7.817.32a.038.038,0,0,0-.019,0s-1.08.768-1.107.795c-.107.1-.054.43,0,.391a4.3,4.3,0,0,0,1.144-.793c.047,0,.07-.379-.018-.395Zm-6.8.114a.276.276,0,0,1,.158.042c.081.047.13.117.124.168,0,0,0,0,0,.005l0,.005,0,.005,0,0,0,0-.011.012a.2.2,0,0,1-.212-.018.212.212,0,0,1-.124-.168l0-.005a.062.062,0,0,1,.007-.018l0-.007,0,0,.009-.009A.1.1,0,0,1,177.4,109Zm-9.457.195a1.8,1.8,0,0,0-1.4,1.135c.59-.284,1.17-.556,1.771-.85-.1-.145-.006-.275-.37-.285Zm1.813.251a.151.151,0,0,1,.143.1.182.182,0,0,1-.032.181s0,0,0,0l0,0c-.024.03-.106.018-.165.018a.16.16,0,0,1-.149-.073c-.02-.064.042-.127.069-.175l0,0a.086.086,0,0,1,.012-.014.184.184,0,0,1,.1-.042Zm14.23.223a.188.188,0,0,0-.15.257c-.027.088.135.4.177.561.038.117-.049.447.03.482s.263-.2.257-.49c.021-.151-.054-.709-.244-.8a.179.179,0,0,0-.069-.005Zm-12.085.545c-.088.006-.166.053-.131.177-.005.09.248.2.264.407.036.086-.054.36.021.386s.165-.19.2-.393c.02-.111-.087-.5-.269-.57A.311.311,0,0,0,171.9,110.21Zm3.617.494h.023a6.276,6.276,0,0,0,.846.1c.235.015.351.2.131.276s-.426.132-.427.446a.432.432,0,0,1,0,.274l-.007.009,0,0,0,0,0,0,0,0,0,0-.011.005-.011,0c-.052.008-.127-.042-.182-.071a1.147,1.147,0,0,1-.563-.829.21.21,0,0,1,.212-.22Zm-8.835.384c-.014,0-.042.043-.08.09a1.756,1.756,0,0,0-.179,1.558.388.388,0,0,0,.377.126.692.692,0,0,0,.251-.669c-.07-.109-.125-.127-.195-.034-.147.3-.208.094-.221-.073a3.832,3.832,0,0,1,.042-.839c.018-.118.018-.16,0-.159Zm11.34.7a.153.153,0,0,0-.078.016,1.414,1.414,0,0,0-.313.267c-.046.035-.041.065-.027.126.036.082.1.056.17.018.095-.013.141.049.133.163a.209.209,0,0,0,.019.2.157.157,0,0,0,.2.025,3.751,3.751,0,0,1,.683-.239c.083,0,.078-.224-.053-.232a.778.778,0,0,0-.5.152c-.105.024-.124-.04-.147-.1-.027-.143.06-.244.042-.351a.248.248,0,0,0-.127-.051Zm7.261.271c-.042,0-.086.007-.15.012s-.094.045-.106.129c0,.128.083.121.163.172a.138.138,0,0,1,0,.209c-.076.069-.13.108-.205.177-.036.061-.058.155.051.184.2.057.669-.247.669-.253a.148.148,0,0,0,.044-.165c-.044-.05-.144-.02-.211-.028-.032,0-.137-.016-.087-.108a.628.628,0,0,0,.085-.163c.032-.069,0-.116-.11-.154A.632.632,0,0,0,185.283,112.056Zm-3.033,6.142,0,0a.319.319,0,0,0-.11.588c-3.546,0-8.989-.06-10.156-.06-.653,0-2.719-.078-2.759-.078a2.092,2.092,0,0,0,1.925.793c1.575,0,8.874-.019,10.951-.019a.728.728,0,0,0,.129.761l.009.005.014.005h.005c.138.032.2-.067.244-.14a14.226,14.226,0,0,0,1.593,0l0,0c.078.114.155.222.3.2.259-.056.463-.084.469-.609,0,0-.026-.9-.614-.839-.139.021-.529.06-.529.06-.452-.054-.783-.059-1.291-.078.047-.059.13-.3.028-.388a.163.163,0,0,0-.12-.03h-.005l0,0-.005,0-.009-.009,0,0c-.026-.037-.04-.129-.057-.152l0,0,0,0,0,0h0Zm.241,1.28h0c.517.025,1,0,1.521.03a.187.187,0,0,1-.012.259l-.009,0h-.014l-.434-.012a.1.1,0,0,0,0-.025c-.04-.118-.329-.11-.4-.018l0,.005,0,.007,0,.009a.08.08,0,0,0,0,.012.078.078,0,0,0,0,.014,4.068,4.068,0,0,1-.659-.016c-.067-.083-.059-.233.019-.269Z" transform="translate(-145.801 -79.781)" fill="#fff" fill-rule="evenodd"/>
  </g>
</svg>
