<svg xmlns="http://www.w3.org/2000/svg" width="16.459" height="20.256" viewBox="0 0 16.459 20.256">
  <path id="Path_29516" data-name="Path 29516" d="M28.412,22.253,26.856,20.2a.21.21,0,0,1-.042-.126V14.3A6.308,6.308,0,0,0,20.9,7.929a6.216,6.216,0,0,0-6.535,6.212v6.153a.21.21,0,0,1-.042.126L12.94,22.253a1.892,1.892,0,0,0,1.4,3.167H27a1.892,1.892,0,0,0,1.409-3.167Zm-.841,1.514a.618.618,0,0,1-.576.379H14.337a.631.631,0,0,1-.458-1.051l.046-.055,1.417-1.867a1.48,1.48,0,0,0,.282-.879V14.14a4.954,4.954,0,0,1,4.971-4.954h.244a5.047,5.047,0,0,1,4.714,5.11v5.8a1.48,1.48,0,0,0,.3.892l1.573,2.069.042.046a.618.618,0,0,1,.114.681ZM23.16,27.051a3.364,3.364,0,0,1-5.021,0,.631.631,0,0,1,.938-.841,2.1,2.1,0,0,0,3.142,0,.631.631,0,0,1,.938.841Z" transform="translate(-12.447 -7.92)" fill="#617d92"/>
</svg>
