<svg xmlns="http://www.w3.org/2000/svg" width="22.02" height="22.038" viewBox="0 0 22.02 22.038">
  <g id="Group_28399" data-name="Group 28399" transform="translate(-0.5 -0.462)">
    <g id="Group_28399-2" data-name="Group 28399" transform="translate(2.374 8.304)">
      <path id="Path_31112" data-name="Path 31112" d="M15.744,31.4H5.437a.94.94,0,0,1-.937-.937V18.137a.94.94,0,0,1,.937-.937H15.744a.94.94,0,0,1,.937.937V30.506A.931.931,0,0,1,15.744,31.4Zm-9.37-1.827h8.48V19.027H6.374Z" transform="translate(-4.5 -17.2)" fill="#7fb949"/>
    </g>
    <g id="Group_28400" data-name="Group 28400" transform="translate(0.824 0.48)">
      <path id="Path_31113" data-name="Path 31113" d="M13.423,10.151H4.287A.9.9,0,0,1,3.4,9.5L1.242,2.8a.919.919,0,0,1,.047-.7A.784.784,0,0,1,1.8,1.671L5.318.547A.594.594,0,0,1,5.6.5h6.419A.594.594,0,0,1,12.3.547L15.86,1.671a1.094,1.094,0,0,1,.562.469.919.919,0,0,1,.047.7L14.314,9.589A.994.994,0,0,1,13.423,10.151ZM4.943,8.324h7.824l1.687-5.2-2.577-.8H5.74l-2.483.8Z" transform="translate(-1.191 -0.5)" fill="#7fb949"/>
    </g>
    <g id="Group_28403" data-name="Group 28403" transform="translate(4.56 0.462)">
      <g id="Group_28401" data-name="Group 28401" transform="translate(4.168)">
        <path id="Path_31114" data-name="Path 31114" d="M18.97,10.131a.282.282,0,0,1-.187-.047.906.906,0,0,1-.7-1.078l1.827-7.824a.91.91,0,1,1,1.78.375L19.86,9.382A.9.9,0,0,1,18.97,10.131Z" transform="translate(-18.062 -0.462)" fill="#7fb949"/>
      </g>
      <g id="Group_28402" data-name="Group 28402" transform="translate(0 0.002)">
        <path id="Path_31115" data-name="Path 31115" d="M11.9,10.133a.9.9,0,0,1-.89-.7L9.182,1.606a.994.994,0,0,1,.7-1.124.994.994,0,0,1,1.124.7l1.78,7.824a.884.884,0,0,1-.7,1.078A.282.282,0,0,1,11.9,10.133Z" transform="translate(-9.166 -0.466)" fill="#7fb949"/>
      </g>
    </g>
    <g id="Group_28404" data-name="Group 28404" transform="translate(12.681 12.193)">
      <path id="Path_31116" data-name="Path 31116" d="M35.4,35.807H27.437a.94.94,0,0,1-.937-.937V26.437a.94.94,0,0,1,.937-.937H35.4a.94.94,0,0,1,.937.937v8.48A.931.931,0,0,1,35.4,35.807ZM28.374,33.98h6.138V27.327H28.374Z" transform="translate(-26.5 -25.5)" fill="#7fb949"/>
    </g>
    <g id="Group_28405" data-name="Group 28405" transform="translate(0.5 8.257)">
      <path id="Path_31117" data-name="Path 31117" d="M15.539,18.974H1.437a.937.937,0,1,1,0-1.874h14.1a.937.937,0,1,1,0,1.874Z" transform="translate(-0.5 -17.1)" fill="#7fb949"/>
    </g>
    <g id="Group_28406" data-name="Group 28406" transform="translate(5.747 14.488)">
      <path id="Path_31118" data-name="Path 31118" d="M16.2,38.412H12.637a.94.94,0,0,1-.937-.937V31.337a.94.94,0,0,1,.937-.937H16.2a.94.94,0,0,1,.937.937v6.184A.931.931,0,0,1,16.2,38.412Zm-2.624-1.827h1.734V32.227H13.574Z" transform="translate(-11.7 -30.4)" fill="#7fb949"/>
    </g>
  </g>
</svg>
