<svg xmlns="http://www.w3.org/2000/svg" width="25.385" height="29.393" viewBox="0 0 25.385 29.393">
  <g id="Group_28412" data-name="Group 28412" transform="translate(-14 -206)">
    <path id="Path_31120" data-name="Path 31120" d="M310.839,251.17a2,2,0,0,0-2-2H298.147a2,2,0,0,0-2,2v10.021a2,2,0,0,0,2,2h10.688a2,2,0,0,0,2-2Zm-1.336,0v10.021a.668.668,0,0,1-.668.667H298.147a.668.668,0,0,1-.668-.667V251.17a.668.668,0,0,1,.668-.667h10.688a.668.668,0,0,1,.668.667Z" transform="translate(-271.454 -30.474)" fill="#7fb949" fill-rule="evenodd"/>
    <path id="Path_31121" data-name="Path 31121" d="M203.811,152a2,2,0,0,0-2-2h-2a2,2,0,0,0-2,2v1.336a.668.668,0,0,0,.668.668h4.676a.668.668,0,0,0,.668-.668Zm-1.336,0v.668h-3.341V152a.668.668,0,0,1,.668-.668h2A.668.668,0,0,1,202.476,152Z" transform="translate(-168.769 66.02)" fill="#7fb949" fill-rule="evenodd"/>
    <path id="Path_31122" data-name="Path 31122" d="M214.008,168.668a.668.668,0,0,0-.668-.668h-2.672a.668.668,0,0,0-.668.668v1.361a1.98,1.98,0,0,0,1.979,1.979h0a2.028,2.028,0,0,0,2.028-2.028Zm-1.336.668v.644a.692.692,0,0,1-.692.692h0a.643.643,0,0,1-.643-.643v-.693Z" transform="translate(-183.307 63.385)" fill="#7fb949" fill-rule="evenodd"/>
    <path id="Path_31123" data-name="Path 31123" d="M212,172.008a2,2,0,0,0,2-2v-1.336a.668.668,0,0,0-.668-.668h-2.672a.668.668,0,0,0-.668.668V170A2,2,0,0,0,212,172.008Zm0-1.336a.668.668,0,0,1-.668-.668v-.668h1.336V170A.668.668,0,0,1,212,170.672Z" transform="translate(-176.627 63.385)" fill="#7fb949" fill-rule="evenodd"/>
    <path id="Path_31124" data-name="Path 31124" d="M209,153.668v7.348a.668.668,0,0,0,1.336,0v-7.348a.668.668,0,1,0-1.336,0Z" transform="translate(-181.639 68.365)" fill="#7fb949" fill-rule="evenodd"/>
    <path id="Path_31125" data-name="Path 31125" d="M209,153.668v7.348a.668.668,0,0,0,1.336,0v-7.348a.668.668,0,1,0-1.336,0Z" transform="translate(-173.623 68.365)" fill="#7fb949" fill-rule="evenodd"/>
    <path id="Path_31126" data-name="Path 31126" d="M24.74,164.6a3.34,3.34,0,1,0,3.34,3.34A3.342,3.342,0,0,0,24.74,164.6Zm0,1.336a2,2,0,1,1-2,2A2,2,0,0,1,24.74,165.936Z" transform="translate(-3.392 41.4)" fill="#7fb949" fill-rule="evenodd"/>
    <path id="Path_31127" data-name="Path 31127" d="M27.081,230.692a2,2,0,0,0,2-2v-2a.668.668,0,1,0-1.336,0v2a.668.668,0,0,1-1.336,0V221.34a2,2,0,0,1,2-2h8.016a2,2,0,0,1,2,2v2a.668.668,0,1,0,1.336,0v-2a3.34,3.34,0,0,0-3.34-3.34H28.417a3.34,3.34,0,0,0-3.34,3.34v7.348a2,2,0,0,0,2,2Z" transform="translate(-11.077 -3.984)" fill="#7fb949" fill-rule="evenodd"/>
    <path id="Path_31128" data-name="Path 31128" d="M31.081,241.7a2,2,0,0,0,2-2v-5.346a.667.667,0,0,1,.667-.667h0a.667.667,0,0,1,.667.667V239.7a2,2,0,1,0,4.008,0V231.68a.668.668,0,1,0-1.336,0V239.7a.668.668,0,1,1-1.336,0v-5.346a2,2,0,0,0-2-2h0a2,2,0,0,0-2,2V239.7a.668.668,0,1,1-1.336,0V225.668a.668.668,0,1,0-1.336,0V239.7A2,2,0,0,0,31.081,241.7Z" transform="translate(-12.405 -6.308)" fill="#7fb949" fill-rule="evenodd"/>
  </g>
</svg>
