<svg id="Group_28397" data-name="Group 28397" xmlns="http://www.w3.org/2000/svg" width="25.496" height="25.593" viewBox="0 0 25.496 25.593">
  <path id="Path_31106" data-name="Path 31106" d="M21.4,379.533h-.746v-3.763a.8.8,0,0,0-.8-.8H16.706a.8.8,0,0,0-.8.8v3.763H14.349v-3.763a.8.8,0,0,0-.8-.8H10.4a.8.8,0,0,0-.8.8v3.763H8.039v-3.763a.8.8,0,0,0-.8-.8H4.087a.8.8,0,0,0-.8.8v3.843a4.091,4.091,0,0,0,.805,8.1H21.4a4.091,4.091,0,0,0,0-8.182Zm-3.9-2.962h1.551v2.962H17.507Zm-6.31,0h1.551v2.962H11.2Zm-6.31,0H6.438v2.962H4.887Zm-.8,9.544a2.49,2.49,0,1,1,0-4.98H18.275a2.49,2.49,0,1,1,0,4.98Zm17.427-.006a4.062,4.062,0,0,0,0-4.969,2.487,2.487,0,0,1,0,4.969Z" transform="translate(0 -362.122)" fill="#f54748"/>
  <path id="Path_31107" data-name="Path 31107" d="M67.065,19.876A1.626,1.626,0,1,0,68.691,21.5,1.628,1.628,0,0,0,67.065,19.876Zm0,2.051a.425.425,0,1,1,.425-.425A.426.426,0,0,1,67.065,21.927ZM71.5,19.876A1.626,1.626,0,1,0,73.127,21.5,1.628,1.628,0,0,0,71.5,19.876Zm0,2.051a.425.425,0,1,1,.425-.425A.426.426,0,0,1,71.5,21.927Zm4.436-2.051A1.626,1.626,0,1,0,77.564,21.5,1.628,1.628,0,0,0,75.938,19.876Zm0,2.051a.425.425,0,1,1,.425-.425A.426.426,0,0,1,75.938,21.927ZM82,21.5a1.626,1.626,0,1,0-1.626,1.626A1.628,1.628,0,0,0,82,21.5Zm-1.626.425A.425.425,0,1,1,80.8,21.5.426.426,0,0,1,80.374,21.927ZM66.068,9.461v1.511a.8.8,0,1,0,1.6,0V9.461a2.119,2.119,0,0,0,.7-.466h2.077v.271a.8.8,0,0,0,.8.8h4.989a3.623,3.623,0,0,0,6.19-2.472L83.333.908A.8.8,0,0,0,82.539,0H75.162a.8.8,0,0,0-.795.9l.491,4.05H71.246a.8.8,0,0,0-.8.8v.271H68.368a2.112,2.112,0,1,0-2.3,3.443ZM78.8,9.533a2.026,2.026,0,1,1,2.026-2.026A2.029,2.029,0,0,1,78.8,9.533ZM81.623,1.6,81.19,4.784a3.608,3.608,0,0,0-4.743-.032L76.065,1.6h5.557ZM72.046,6.548h3.006l.126,1.041a3.611,3.611,0,0,0,.129.877H72.046V6.548Zm-1.6.671v.575H68.954a2.086,2.086,0,0,0,.029-.288,2.086,2.086,0,0,0-.029-.288h1.491Zm-3.576-.225a.513.513,0,1,1-.513.513A.513.513,0,0,1,66.869,6.994Z" transform="translate(-62.536)" fill="#f54748"/>
</svg>
