<svg xmlns="http://www.w3.org/2000/svg" width="25.306" height="25.36" viewBox="0 0 25.306 25.36">
  <g id="Group_28432" data-name="Group 28432" transform="translate(-0.6 -0.5)">
    <path id="Path_31134" data-name="Path 31134" d="M11.207,21.2a2.788,2.788,0,0,0-.754-1.885L7.115,15.979a.675.675,0,0,0-1.131.377,6.138,6.138,0,0,0-.108,2.692l.054.108,1.185,1.185-.377.054a1.955,1.955,0,0,1-1.4-.592l-1.4-1.4V15.118A2.424,2.424,0,0,0,2.485,12.91a3.994,3.994,0,0,0-1.346-.269H.6V19.21a1.955,1.955,0,0,0,.592,1.4l3.877,3.877v.162H3.615V28.74h8.83V24.648H11.207ZM1.892,19.91a.892.892,0,0,1-.269-.646V13.826c.108.054.269.054.377.108a1.344,1.344,0,0,1,.808,1.185v3.769L4.531,20.61a3.142,3.142,0,0,0,2.208.915l1.346-.215a.657.657,0,0,0,.485-.431.708.708,0,0,0-.162-.646L6.792,18.618a3.769,3.769,0,0,1,0-1.346l2.8,2.8a1.55,1.55,0,0,1,.485,1.131v3.554H6.038v-.162a1.1,1.1,0,0,0-.323-.808Zm9.423,5.923v1.938H4.692V25.833h6.623ZM23.968,12.964a2.424,2.424,0,0,0-1.454,2.208v3.284l-1.4,1.4a1.955,1.955,0,0,1-1.4.592l-.377-.054,1.185-1.185.054-.108a5.642,5.642,0,0,0-.108-2.746.637.637,0,0,0-.485-.485.708.708,0,0,0-.646.162L16,19.372a2.691,2.691,0,0,0-.754,1.885V24.81H14.007V28.9h8.83V24.81h-1.4v-.215l3.877-3.877a1.955,1.955,0,0,0,.592-1.4V12.7h-.538A3.813,3.813,0,0,0,23.968,12.964ZM21.706,25.833v1.938H15.084V25.833h6.623Zm3.069-6.569a.892.892,0,0,1-.269.646L20.63,23.787a1.1,1.1,0,0,0-.323.808v.162H16.268V21.2a1.55,1.55,0,0,1,.485-1.131l2.8-2.8a3.769,3.769,0,0,1,0,1.346l-1.615,1.615a.708.708,0,0,0-.162.646.657.657,0,0,0,.485.431l1.292.215h.108a3.05,3.05,0,0,0,2.208-.915l1.723-1.723V15.172a1.233,1.233,0,0,1,.808-1.185,1,1,0,0,1,.377-.108v5.384ZM13.361,7.1A3.5,3.5,0,0,0,9.7,10.434a3.437,3.437,0,0,0,.915,2.531,3.538,3.538,0,0,0,2.423,1.131H13.2a3.533,3.533,0,0,0,3.5-3.338A3.5,3.5,0,0,0,13.361,7.1Zm-.269,5.923a2.47,2.47,0,0,1-1.669-.808,2.54,2.54,0,0,1-.646-1.723A2.427,2.427,0,0,1,13.2,8.172h.108a2.425,2.425,0,1,1-.215,4.846Z" transform="translate(0 -3.042)" fill="#63229c"/>
    <path id="Path_31135" data-name="Path 31135" d="M25.007,8.684V6.315l-1.4-.323a5.2,5.2,0,0,0-.592-1.4l.754-1.238L22.046,1.685l-1.238.754a4.441,4.441,0,0,0-1.4-.538L19.084.5H16.715l-.323,1.4a5.2,5.2,0,0,0-1.4.592l-1.238-.754L12.138,3.461,12.892,4.7A6.432,6.432,0,0,0,12.3,6.1l-1.4.323V8.792l1.4.323a5.2,5.2,0,0,0,.592,1.4l-.754,1.238,1.723,1.669,1.238-.754a4.441,4.441,0,0,0,1.4.538l.323,1.4h2.369l.323-1.4a5.2,5.2,0,0,0,1.4-.592l1.238.754,1.669-1.723-.754-1.238a4.441,4.441,0,0,0,.538-1.4Zm-2.315-.538-.054.323a4.888,4.888,0,0,1-.646,1.669l-.162.269.646,1.077-.485.485-1.077-.646-.269.215a4.756,4.756,0,0,1-1.615.7l-.323.054-.269,1.238h-.7l-.323-1.238-.323-.054a4.888,4.888,0,0,1-1.669-.646l-.269-.162-1.077.646-.538-.538.646-1.077-.215-.269a4.756,4.756,0,0,1-.7-1.615l-.054-.323-1.238-.269v-.7l1.238-.323.054-.323a4.888,4.888,0,0,1,.646-1.669l.162-.269-.646-1.077.485-.485,1.077.646.269-.215a4.757,4.757,0,0,1,1.615-.7l.323-.054.269-1.238h.7l.323,1.238.323.054a4.888,4.888,0,0,1,1.669.646l.269.162,1.077-.646.485.485-.646,1.077.215.269a4.756,4.756,0,0,1,.7,1.615l.054.323,1.238.269v.7Z" transform="translate(-4.754)" fill="#63229c"/>
  </g>
</svg>
