<svg xmlns="http://www.w3.org/2000/svg" width="27.171" height="27.16" viewBox="0 0 27.171 27.16">
  <g id="Group_28398" data-name="Group 28398" transform="translate(2.697 -0.528)">
    <path id="Path_31108" data-name="Path 31108" d="M5.51,40.029c.979.8,2.133.839,2.238-.1a2.468,2.468,0,0,0-1.154-1.958,1.137,1.137,0,0,0-1.294-.14" transform="translate(-2.604 -16.785)" fill="none" stroke="#818283" stroke-linecap="round" stroke-linejoin="round" stroke-miterlimit="10" stroke-width="1"/>
    <ellipse id="Ellipse_7115" data-name="Ellipse 7115" cx="2.743" cy="4.622" rx="2.743" ry="4.622" transform="matrix(0.707, -0.707, 0.707, 0.707, -1.283, 19.738)" fill="none" stroke="#818283" stroke-linecap="round" stroke-linejoin="round" stroke-miterlimit="10" stroke-width="2"/>
    <path id="Path_31109" data-name="Path 31109" d="M2.6,17.823,18.344,2.078c1.067-1.067,3.4-.508,5.18,1.32,1.778,1.778,2.387,4.114,1.32,5.18L9.1,24.324" transform="translate(-1.911)" fill="none" stroke="#818283" stroke-linecap="round" stroke-linejoin="round" stroke-miterlimit="10" stroke-width="2"/>
    <path id="Path_31110" data-name="Path 31110" d="M18.149,14.49,15,17.638c1.067-1.067,3.4-.508,5.18,1.32s2.387,4.114,1.32,5.18l3.149-3.149c1.067-1.067.508-3.4-1.32-5.18s-4.114-2.387-5.18-1.32Z" transform="translate(-8.013 -6.113)" fill="none" stroke="#818283" stroke-linecap="round" stroke-linejoin="round" stroke-miterlimit="10" stroke-width="2"/>
    <path id="Path_31111" data-name="Path 31111" d="M34.656,30.552l-3.1.66-.406,2.844-3.352-3.4L31.254,27.2Z" transform="translate(-14.312 -12.628)" fill="none" stroke="#818283" stroke-linecap="round" stroke-linejoin="round" stroke-miterlimit="10" stroke-width="2"/>
  </g>
</svg>
