<svg xmlns="http://www.w3.org/2000/svg" width="19.98" height="17.647" viewBox="0 0 19.98 17.647">
  <path id="Path_31105" data-name="Path 31105" d="M14,11H13V10a1,1,0,0,0-2,0v1H10a1,1,0,0,0,0,2h1v1a1,1,0,0,0,2,0V13h1a1,1,0,0,0,0-2Zm6.16-6A6.29,6.29,0,0,0,12,4.41a6.27,6.27,0,0,0-8.16,9.48l6,6.05a3,3,0,0,0,4.24,0l6-6.05A6.27,6.27,0,0,0,20.16,5Zm-1.41,7.46-6,6a1,1,0,0,1-1.42,0l-6-6a4.243,4.243,0,1,1,6-6,1,1,0,0,0,1.42,0,4.25,4.25,0,1,1,6,6.02Z" transform="translate(-1.988 -3.171)" fill="#07f"/>
</svg>
