<svg xmlns="http://www.w3.org/2000/svg" width="19.991" height="19.99" viewBox="0 0 19.991 19.99">
  <path id="Path_31119" data-name="Path 31119" d="M13.508,291.183a1,1,0,0,0-.7.283l-4,4a1,1,0,0,0-.287.706v4a1,1,0,0,0,.993,1h8a1,1,0,0,0,1-1v-4a1,1,0,0,0-.291-.71l-4-4a1,1,0,0,0-.725-.287Zm.015,2.41,3,3v2.584h-2v-1.995H12.53v1.995h-2v-2.584Zm-12,7.577a1,1,0,0,0-1,1v8a1,1,0,0,0,1,1h4a1,1,0,0,0,1-1v-.661L12,311.123a1,1,0,0,0,.612-.008l5.791-2a.991.991,0,0,0,.132-.057,3.679,3.679,0,0,0,1.987-3.26,2.765,2.765,0,0,0-.585-1.775,2.422,2.422,0,0,0-1.858-.85H6.527v-1a1,1,0,0,0-1-1Zm1,2h2v5.995h-2Zm4,2H18.075c.227,0,.249.038.31.113a.856.856,0,0,1,.136.514,1.738,1.738,0,0,1-.9,1.473l-5.356,1.847-5.734-1.7Z" transform="translate(-0.529 -291.179)" fill="#f9991f"/>
</svg>
