<svg xmlns="http://www.w3.org/2000/svg" width="21.135" height="21.135" viewBox="0 0 21.135 21.135">
  <path id="Path_31129" data-name="Path 31129" d="M8.75,1H3.114A2.114,2.114,0,0,0,1,3.114V8.75a2.114,2.114,0,0,0,2.114,2.114H8.75A2.114,2.114,0,0,0,10.863,8.75V3.114A2.114,2.114,0,0,0,8.75,1Zm.7,7.75a.7.7,0,0,1-.7.7H3.114a.7.7,0,0,1-.7-.7V3.114a.7.7,0,0,1,.7-.7H8.75a.7.7,0,0,1,.7.7ZM20.022,1H14.386a2.114,2.114,0,0,0-2.114,2.114V8.75a2.114,2.114,0,0,0,2.114,2.114h5.636A2.114,2.114,0,0,0,22.135,8.75V3.114A2.114,2.114,0,0,0,20.022,1Zm.7,7.75a.7.7,0,0,1-.7.7H14.386a.7.7,0,0,1-.7-.7V3.114a.7.7,0,0,1,.7-.7h5.636a.7.7,0,0,1,.7.7ZM8.75,12.272H3.114A2.114,2.114,0,0,0,1,14.386v5.636a2.114,2.114,0,0,0,2.114,2.114H8.75a2.114,2.114,0,0,0,2.114-2.114V14.386A2.114,2.114,0,0,0,8.75,12.272Zm.7,7.75a.7.7,0,0,1-.7.7H3.114a.7.7,0,0,1-.7-.7V14.386a.7.7,0,0,1,.7-.7H8.75a.7.7,0,0,1,.7.7Zm10.568-7.75H14.386a2.114,2.114,0,0,0-2.114,2.114v5.636a2.114,2.114,0,0,0,2.114,2.114h5.636a2.114,2.114,0,0,0,2.114-2.114V14.386a2.114,2.114,0,0,0-2.114-2.114Zm.7,7.75a.7.7,0,0,1-.7.7H14.386a.7.7,0,0,1-.7-.7V14.386a.7.7,0,0,1,.7-.7h5.636a.7.7,0,0,1,.7.7Z" transform="translate(-1 -1)" fill="#f9991f"/>
</svg>
